<svg width="48" height="48" viewBox="0 0 48 48" fill="none" xmlns="http://www.w3.org/2000/svg">
<rect width="48" height="48" fill="#1E1E1E"/>
<rect width="1920" height="5216" transform="translate(-884 -660)" fill="white"/>
<rect x="-830.5" y="-240.5" width="894" height="304" rx="31.5" stroke="#D9D9D9"/>
<path d="M18.2929 28.2929C17.9024 28.6834 17.9024 29.3166 18.2929 29.7071C18.6834 30.0976 19.3166 30.0976 19.7071 29.7071L18.2929 28.2929ZM30 19C30 18.4477 29.5523 18 29 18L20 18C19.4477 18 19 18.4477 19 19C19 19.5523 19.4477 20 20 20L28 20L28 28C28 28.5523 28.4477 29 29 29C29.5523 29 30 28.5523 30 28L30 19ZM19.7071 29.7071L29.7071 19.7071L28.2929 18.2929L18.2929 28.2929L19.7071 29.7071Z" fill="#A39292"/>
<circle cx="24" cy="24" r="23.5" stroke="#A39292"/>
</svg>
