<svg width="24" height="24" viewBox="0 0 24 24" fill="none" xmlns="http://www.w3.org/2000/svg">
<path fill-rule="evenodd" clip-rule="evenodd" d="M19.1485 6.58638C19.3967 6.83622 19.575 7.14688 19.6655 7.48727C20 8.74364 20 11.3636 20 11.3636C20 11.3636 20 13.9836 19.6655 15.24C19.575 15.5804 19.3967 15.8911 19.1485 16.1409C18.9002 16.3907 18.5907 16.571 18.2509 16.6636C17 17 12 17 12 17C12 17 7 17 5.74909 16.6636C5.40929 16.571 5.09977 16.3907 4.85153 16.1409C4.60328 15.8911 4.425 15.5804 4.33455 15.24C4 13.9836 4 11.3636 4 11.3636C4 11.3636 4 8.74364 4.33455 7.48727C4.425 7.14688 4.60328 6.83622 4.85153 6.58638C5.09977 6.33653 5.40929 6.15627 5.74909 6.06364C7 5.72727 12 5.72727 12 5.72727C12 5.72727 17 5.72727 18.2509 6.06364C18.5907 6.15627 18.9002 6.33653 19.1485 6.58638ZM10.3638 8.98422L10.3638 13.7424L14.5456 11.3633L10.3638 8.98422Z" fill="currentColor"/>
</svg>
