<svg xmlns="http://www.w3.org/2000/svg">
	<path fill="#A39292" d="M15.1406 9C15.6929 9 16.1406 8.55228 16.1406 8C16.1406 7.44772 15.6929 7 15.1406 7L15.1406 9ZM0.291382 7.29289C-0.0991431 7.68342 -0.099143 8.31658 0.291382 8.70711L6.65534 15.0711C7.04587 15.4616 7.67903 15.4616 8.06956 15.0711C8.46008 14.6805 8.46008 14.0474 8.06956 13.6569L2.4127 8L8.06956 2.34315C8.46008 1.95262 8.46008 1.31946 8.06956 0.928933C7.67903 0.538408 7.04587 0.538409 6.65534 0.928933L0.291382 7.29289ZM15.1406 7L0.998488 7L0.998489 9L15.1406 9L15.1406 7Z" />
</svg>
