<svg width="903" height="1070" viewBox="0 0 903 1070" fill="none" xmlns="http://www.w3.org/2000/svg">
<path d="M39.2528 354.749C40.1674 352.265 40.5794 349.624 40.4649 346.98C40.3503 344.335 39.7114 341.74 38.5854 339.345C37.4594 336.949 35.8687 334.801 33.9056 333.026C31.9426 331.25 29.6462 329.883 27.15 329.002C23.4 327.643 19.331 327.427 15.4583 328.382C11.5855 329.337 8.0832 331.42 5.39494 334.366C2.70667 337.313 0.953351 340.991 0.356999 344.935C-0.239353 348.879 0.348166 352.911 2.04502 356.521C3.74188 360.131 6.47184 363.156 9.88914 365.213C13.3064 367.271 17.2573 368.267 21.2415 368.078C25.2258 367.888 29.0641 366.52 32.2704 364.147C35.4767 361.775 37.9067 358.504 39.2528 354.749Z" fill="#22396E"/>
<path d="M63.5726 218.36L66.5983 214.478C69.2244 211.109 73.6774 205.572 81.841 211.851C90.0047 218.131 87.2074 224.011 83.2682 228.978L81.1558 231.718L63.5726 218.36ZM90.6897 239.14L94.3435 234.516C96.6439 232.066 98.3869 229.147 99.453 225.96C100.519 222.773 100.883 219.393 100.52 216.053C100.156 212.712 99.0742 209.489 97.3479 206.606C95.6215 203.722 93.2918 201.247 90.5184 199.349C87.8936 196.883 84.6274 195.205 81.0938 194.509C77.5602 193.812 73.9018 194.124 70.5374 195.41C65.3452 198.093 60.8943 202.015 57.5784 206.828L46.1606 221.271C45.9326 221.481 45.7582 221.742 45.6519 222.033C45.5456 222.324 45.5105 222.637 45.5496 222.944C45.5888 223.252 45.701 223.545 45.8768 223.8C46.0526 224.055 46.2868 224.265 46.5601 224.411L103.649 268.255C103.859 268.483 104.12 268.657 104.411 268.764C104.702 268.87 105.015 268.905 105.322 268.866C105.629 268.827 105.923 268.715 106.178 268.539C106.433 268.363 106.643 268.129 106.789 267.855L113.411 259.406C113.637 259.192 113.808 258.927 113.91 258.634C114.012 258.34 114.042 258.026 113.997 257.718C113.952 257.41 113.834 257.118 113.653 256.865C113.471 256.612 113.232 256.407 112.954 256.266L90.6897 239.14Z" fill="#22396E"/>
<path d="M172.895 144.555C167.814 138.846 146.234 114.412 125.454 132.109C104.674 149.807 125.454 174.469 130.478 180.635C135.502 186.8 157.081 210.72 177.861 193.023C198.642 175.325 178.147 150.663 172.895 144.555ZM169.983 183.889C161.363 191.196 148.575 177.324 142.581 170.359C135.616 162.309 125.112 148.208 133.332 141.244C141.553 134.279 153.827 146.952 160.792 154.888C166.786 161.795 178.604 176.581 169.983 183.889Z" fill="#22396E"/>
<path d="M254.875 123.779C254.304 123.437 253.847 123.094 253.048 123.779C252.249 124.464 251.906 125.149 251.279 126.291C249.735 129.149 247.447 131.537 244.656 133.199C243.029 134.182 241.191 134.763 239.294 134.892C237.398 135.021 235.497 134.695 233.752 133.941C227.53 131.144 221.021 120.24 218.567 115.958C211.316 103.17 209.375 96.7192 210.574 92.095C211.024 90.4805 211.804 88.977 212.866 87.6798C213.927 86.3826 215.246 85.32 216.74 84.5593C219.862 83.0384 223.422 82.6743 226.787 83.5317C227.663 83.7902 228.595 83.7902 229.471 83.5317C230.041 83.2463 229.927 82.6183 229.984 81.9903L230.498 74.5117C230.635 74.0263 230.635 73.5127 230.498 73.0274C230.156 72.3994 229.242 71.9427 227.244 71.5431C221.232 70.6194 215.085 71.7883 209.832 74.8542C199.499 80.5631 188.367 94.5498 205.322 124.521C213.143 138.28 227.415 156.891 249.623 144.445C255.134 141.551 259.575 136.97 262.297 131.372C262.515 131.089 262.663 130.757 262.726 130.405C262.79 130.053 262.767 129.69 262.661 129.348C262.554 129.007 262.367 128.696 262.115 128.442C261.863 128.188 261.553 127.998 261.212 127.89L254.875 123.779Z" fill="#22396E"/>
<path d="M327.446 95.525C326.989 95.0683 326.59 94.6116 325.733 94.897C324.877 95.1825 324.363 96.0959 323.507 97.0664C321.449 99.6507 318.725 101.625 315.629 102.775C313.845 103.427 311.933 103.647 310.048 103.419C308.163 103.191 306.358 102.521 304.782 101.462C299.073 97.5231 294.791 85.5916 293.364 80.9103C288.626 66.9236 287.655 60.2443 289.996 55.8484C290.741 54.3417 291.79 53.0057 293.077 51.9248C294.364 50.844 295.862 50.0417 297.474 49.5687C300.839 48.659 304.416 48.9621 307.579 50.425C308.392 50.8285 309.304 50.9872 310.205 50.8817C310.89 50.8817 310.89 50.0254 311.062 49.3974L312.945 42.1472C313.09 41.6435 313.09 41.1094 312.945 40.6058C312.945 39.9778 311.861 39.2927 309.977 38.5506C304.213 36.5224 297.929 36.5224 292.165 38.5506C280.747 42.3184 267.274 53.9645 278.35 86.6763C283.488 101.691 293.992 122.699 318.312 114.593C324.302 112.769 329.546 109.066 333.269 104.031C333.269 103.575 334.182 102.547 333.897 101.805C333.695 101.242 333.339 100.748 332.869 100.378L327.446 95.525Z" fill="#22396E"/>
<path d="M396.859 19.71C394.861 19.71 394.747 20.8518 394.233 22.3932L383.957 53.9632C382.701 57.7881 379.904 67.322 378.705 71.9461H378.248C376.935 59.3295 377.449 61.6131 376.821 56.4751L372.939 24.6768C372.939 23.6492 372.425 22.5074 370.427 22.7357L359.751 23.9917C359.444 23.9901 359.141 24.0594 358.865 24.194C358.589 24.3286 358.348 24.525 358.16 24.768C357.972 25.011 357.843 25.294 357.782 25.5949C357.722 25.8959 357.731 26.2069 357.81 26.5036L366.488 97.6931C366.488 98.6636 367.002 99.8625 369 99.6341L379.675 98.3211C381.331 98.3211 381.559 97.4077 381.959 96.1517L393.376 61.4989C395.13 56.4089 396.598 51.2248 397.772 45.9708H398.229C398.229 49.8528 398.914 55.2191 399.257 58.1878L403.538 93.2973C403.538 94.2678 404.052 95.4667 406.05 95.2383L416.669 93.9253C418.667 93.9253 418.781 92.4409 418.667 91.4704L409.932 20.2809C409.932 19.2533 409.475 18.1116 407.477 18.3399L396.859 19.71Z" fill="#22396E"/>
<path d="M506.138 20.8944C504.14 20.8944 503.797 21.5795 502.998 22.9496L485.871 51.494C483.816 55.0334 478.964 63.7109 476.737 67.9355H476.28C477.822 55.3189 477.765 57.6595 478.336 52.4074L481.589 20.4948C481.589 19.5243 481.59 18.2684 479.592 18.04L468.916 17.1266C467.945 17.1266 466.69 17.1266 466.461 19.1247L459.154 90.6568C459.154 91.6844 459.154 92.8832 461.152 93.1116L471.885 94.1963C473.54 94.1963 473.94 93.7396 474.625 92.5407L493.407 61.199C496.259 56.5903 498.852 51.8255 501.171 46.9268H501.628C501 50.8089 500.2 56.1181 499.915 59.0868L496.318 94.3675C496.318 95.338 496.319 96.594 498.317 96.8223L509.049 97.907C509.348 97.9897 509.662 97.9997 509.965 97.9362C510.268 97.8726 510.552 97.7374 510.793 97.5418C511.033 97.3462 511.223 97.0958 511.347 96.8118C511.471 96.5277 511.525 96.2181 511.504 95.9089L518.811 24.3769C518.894 24.0782 518.904 23.7641 518.841 23.4608C518.777 23.1576 518.642 22.8739 518.446 22.6336C518.251 22.3932 518 22.2032 517.716 22.0794C517.432 21.9557 517.123 21.9017 516.813 21.922L506.138 20.8944ZM503.169 1.71265C502.655 1.71265 502.199 1.25595 501.628 1.71265C501.057 2.16936 500.943 2.85442 500.486 3.71075C499.923 4.95203 498.984 5.98504 497.801 6.66396C496.619 7.34289 495.254 7.63346 493.897 7.49469C492.541 7.35592 491.263 6.79483 490.243 5.89055C489.223 4.98628 488.512 3.78451 488.212 2.45481C488.212 1.42722 488.212 0.114177 487.013 0H478.678C478.222 0 477.536 0.342532 477.422 1.42722C477.23 3.69491 477.792 5.9626 479.021 7.87824C480.53 10.2527 482.6 12.2188 485.05 13.6028C487.499 14.9868 490.252 15.7461 493.064 15.8136C495.844 16.2913 498.697 16.0891 501.382 15.2242C504.066 14.3593 506.501 12.8574 508.478 10.8468C509.99 9.27949 510.986 7.28748 511.333 5.13796C511.333 4.05328 510.819 3.53952 510.362 3.48243L503.169 1.71265Z" fill="#22396E"/>
<path d="M591.366 106.236C591.366 105.608 591.366 104.98 590.339 104.752C589.294 104.657 588.241 104.793 587.256 105.151C584.041 106.108 580.625 106.168 577.379 105.323C575.541 104.817 573.852 103.873 572.46 102.57C571.068 101.267 570.013 99.6451 569.387 97.844C567.217 91.4501 570.757 79.2331 572.241 74.5518C576.694 60.508 580.119 54.685 584.344 52.4015C585.839 51.6303 587.476 51.1719 589.155 51.0541C590.833 50.9363 592.518 51.1617 594.106 51.7164C597.363 52.9426 600.076 55.2908 601.756 58.3386C602.156 58.9666 602.898 59.9942 603.64 60.2226C604.382 60.4509 604.668 60.2226 605.124 59.5375L610.833 54.8563C611.176 54.4567 611.633 54.1712 611.804 53.6003C611.975 53.0294 611.804 51.9447 610.662 50.2321C607.202 45.2444 602.149 41.5808 596.333 39.8419C584.915 36.3024 567.103 37.6726 556.656 70.4985C551.861 85.627 547.922 108.691 572.298 116.169C578.233 118.109 584.632 118.109 590.567 116.169C591.081 116.169 592.165 115.484 592.394 114.742C592.573 114.185 592.573 113.586 592.394 113.03L591.366 106.236Z" fill="#22396E"/>
<path d="M632.234 138.829C633.261 139.343 634.289 139.8 635.317 137.916L650.502 110.228L654.727 112.568C655.723 112.957 656.625 113.553 657.373 114.318C658.121 115.082 658.698 115.997 659.065 117.001C659.432 118.006 659.581 119.077 659.503 120.143C659.424 121.21 659.119 122.247 658.609 123.187L654.555 136.26C652.765 139.973 652.341 144.197 653.357 148.192C655.201 151.922 658.151 154.993 661.806 156.983C663.518 157.897 664.089 157.326 664.831 156.983L671.454 150.932C671.654 150.789 671.817 150.601 671.93 150.383C672.043 150.164 672.101 149.922 672.101 149.676C672.101 149.43 672.043 149.188 671.93 148.969C671.817 148.751 671.654 148.563 671.454 148.42L669.227 146.479C666.601 144.138 666.83 142.597 668.485 137.516L671.396 128.439C672.362 125.861 672.58 123.062 672.024 120.365C671.469 117.668 670.163 115.183 668.257 113.196C670.699 113.675 673.229 113.427 675.532 112.484C677.835 111.54 679.811 109.942 681.216 107.887L686.182 101.55C689.665 97.0403 691.435 96.9833 694.004 97.6112L696.801 98.3534C697.038 98.4118 697.286 98.4187 697.526 98.3735C697.767 98.3283 697.995 98.2322 698.195 98.0916C698.395 97.9509 698.562 97.7691 698.686 97.5582C698.81 97.3473 698.888 97.1123 698.913 96.8691L700.683 88.7625C700.767 88.3031 700.687 87.8289 700.458 87.4222C700.228 87.0154 699.864 86.7019 699.427 86.536C696.391 85.0596 693.038 84.3537 689.665 84.4808C687.275 84.6625 684.963 85.4094 682.918 86.66C680.873 87.9106 679.155 89.6292 677.905 91.674L671.853 99.2097C667.457 104.919 664.146 104.919 659.408 102.064L656.097 100.237L669.798 75.2325C670.826 73.3486 669.798 72.7206 668.885 72.1497L659.408 67.0117C658.437 66.4979 657.41 66.0412 656.382 67.9251L621.901 130.608C620.873 132.492 621.901 133.12 622.757 133.691L632.234 138.829Z" fill="#22396E"/>
<path d="M772.916 145.281C771.374 143.911 770.632 144.482 769.148 145.281L738.434 158.754C734.724 160.409 725.704 164.463 721.308 166.86H720.965C729.586 157.441 728.158 159.382 731.641 155.443L752.992 131.351C753.239 131.171 753.441 130.935 753.58 130.662C753.719 130.389 753.791 130.087 753.791 129.781C753.791 129.475 753.719 129.173 753.58 128.9C753.441 128.627 753.239 128.391 752.992 128.211L744.942 121.132C744.756 120.884 744.515 120.683 744.237 120.544C743.96 120.405 743.654 120.333 743.344 120.333C743.034 120.333 742.728 120.405 742.45 120.544C742.173 120.683 741.931 120.884 741.745 121.132L694.019 175.024C693.771 175.204 693.57 175.44 693.431 175.713C693.292 175.986 693.219 176.288 693.219 176.594C693.219 176.9 693.292 177.202 693.431 177.475C693.57 177.748 693.771 177.984 694.019 178.164L702.183 185.243C703.439 186.327 704.124 186.042 705.38 185.243L738.948 170.571C743.949 168.49 748.829 166.126 753.563 163.492H753.905C751.165 166.232 747.454 170.114 745.456 172.398L721.936 198.944C721.687 199.13 721.486 199.372 721.347 199.649C721.209 199.926 721.136 200.232 721.136 200.543C721.136 200.853 721.209 201.159 721.347 201.436C721.486 201.714 721.687 201.955 721.936 202.141L730.042 209.163C730.222 209.411 730.458 209.612 730.731 209.751C731.004 209.89 731.306 209.963 731.612 209.963C731.918 209.963 732.22 209.89 732.493 209.751C732.766 209.612 733.002 209.411 733.182 209.163L780.908 155.214C781.156 155.034 781.357 154.798 781.496 154.525C781.635 154.252 781.708 153.95 781.708 153.644C781.708 153.338 781.635 153.036 781.496 152.763C781.357 152.49 781.156 152.254 780.908 152.074L772.916 145.281Z" fill="#22396E"/>
<path d="M844.897 226.799C843.698 225.2 842.842 225.543 841.243 225.885L808.189 232.393C804.193 233.193 794.431 235.419 789.749 236.618L789.464 236.218C799.968 228.911 798.198 230.509 802.48 227.427L828.627 208.473C828.908 208.338 829.153 208.137 829.34 207.887C829.527 207.637 829.651 207.345 829.702 207.037C829.752 206.729 829.727 206.413 829.629 206.117C829.532 205.82 829.364 205.551 829.14 205.333L822.861 196.656C822.713 196.378 822.502 196.139 822.244 195.958C821.987 195.777 821.69 195.659 821.378 195.615C821.067 195.57 820.749 195.6 820.451 195.701C820.153 195.803 819.883 195.974 819.664 196.199L761.091 238.616C760.82 238.754 760.585 238.953 760.405 239.198C760.225 239.444 760.105 239.728 760.055 240.028C760.005 240.328 760.026 240.635 760.117 240.925C760.208 241.216 760.365 241.481 760.577 241.699L766.971 250.376C767.942 251.746 768.683 251.632 769.997 251.347L806.134 244.268C811.492 243.32 816.791 242.062 822.004 240.5V240.9C818.693 243.012 814.183 245.98 811.728 247.75L782.899 268.645C782.626 268.789 782.391 268.994 782.212 269.245C782.032 269.495 781.913 269.783 781.863 270.087C781.813 270.391 781.835 270.703 781.925 270.997C782.016 271.291 782.173 271.561 782.385 271.785L788.779 280.462C788.92 280.739 789.125 280.979 789.378 281.16C789.63 281.342 789.922 281.46 790.23 281.504C790.538 281.549 790.852 281.519 791.146 281.417C791.44 281.315 791.705 281.144 791.919 280.919L850.492 238.502C850.773 238.374 851.017 238.179 851.205 237.934C851.393 237.689 851.518 237.402 851.569 237.097C851.619 236.793 851.595 236.48 851.497 236.188C851.398 235.895 851.23 235.631 851.005 235.419L844.897 226.799ZM857.456 211.899C857.114 211.442 857.114 210.928 856.429 210.7C855.744 210.471 855.116 210.985 854.202 211.271C852.9 211.774 851.465 211.817 850.135 211.391C848.806 210.965 847.662 210.096 846.895 208.93C845.964 207.884 845.45 206.533 845.45 205.134C845.45 203.734 845.964 202.383 846.895 201.337C847.523 200.424 848.551 199.567 847.923 198.768C847.71 198.507 847.481 198.259 847.238 198.026L842.328 192.603C842.064 192.358 841.717 192.222 841.357 192.222C840.997 192.222 840.651 192.358 840.387 192.603C838.548 194.049 837.226 196.052 836.619 198.311C835.894 200.971 835.822 203.766 836.408 206.46C836.994 209.153 838.222 211.665 839.987 213.782C841.471 216.181 843.524 218.176 845.964 219.59C848.404 221.004 851.155 221.794 853.974 221.889C856.271 221.972 858.534 221.311 860.425 220.005C861.281 219.377 861.281 218.578 860.996 218.178L857.456 211.899Z" fill="#22396E"/>
<path d="M852.36 370.001C854.165 374.911 857.793 378.936 862.491 381.239C867.188 383.541 872.592 383.943 877.579 382.362C882.565 380.781 886.75 377.338 889.262 372.749C891.774 368.161 892.42 362.78 891.066 357.727C889.367 352.618 885.726 348.382 880.93 345.936C876.133 343.49 870.567 343.029 865.433 344.654C862.905 345.452 860.56 346.742 858.532 348.45C856.505 350.158 854.836 352.25 853.62 354.607C852.405 356.963 851.668 359.536 851.452 362.178C851.235 364.82 851.544 367.479 852.36 370.001Z" fill="#22396E"/>
<path d="M15.2804 488.903C15.8513 488.618 16.4221 488.389 16.4221 487.476C16.1994 486.457 15.7507 485.501 15.1091 484.678C13.4153 481.91 12.5073 478.732 12.4829 475.487C12.4296 473.589 12.8508 471.707 13.708 470.012C14.5653 468.318 15.8317 466.864 17.3926 465.782C23.1015 461.843 35.7752 461.786 40.7419 461.9C55.5278 461.9 62.093 463.727 65.5183 467.152C66.6889 468.356 67.5977 469.789 68.1872 471.361C68.7767 472.933 69.0342 474.61 68.9437 476.286C68.6516 479.733 67.1561 482.966 64.7192 485.421C64.0882 486.075 63.6361 486.881 63.4061 487.761C63.4061 488.446 63.977 488.675 64.5479 489.017L70.7134 493.242C71.1397 493.538 71.6278 493.733 72.1406 493.813C72.8257 493.813 73.739 493.299 75.1092 491.757C78.8752 487.046 80.8926 481.176 80.818 475.145C81.1035 463.327 74.6525 446.6 39.9997 446.029C24.072 445.744 0.722706 448.484 0.0376429 473.889C-0.282119 480.11 1.4422 486.265 4.94736 491.415C5.28989 491.872 6.03196 492.785 6.8312 492.785C7.41889 492.764 7.99038 492.586 8.48682 492.271L15.2804 488.903Z" fill="#22396E"/>
<path d="M52.1658 574.318C59.9298 573.005 92.1279 566.953 87.3896 540.064C82.6512 513.176 50.7385 518.028 42.6319 519.398C34.5253 520.768 2.66991 526.763 7.52244 553.652C12.375 580.54 43.8309 575.688 52.1658 574.318ZM19.5111 551.482C17.5701 540.35 36.2381 536.468 45.3722 534.926C55.8765 533.1 73.517 531.33 75.4009 541.948C77.2848 552.567 60.1011 556.734 49.4255 558.561C40.0629 560.217 21.1667 562.729 19.2257 551.596L19.5111 551.482Z" fill="#22396E"/>
<path d="M72.2586 617.476L98.5766 606.058C100.746 605.087 100.403 604.288 99.8326 602.975L95.665 593.441C95.0941 592.128 94.7516 591.272 92.5822 592.242L26.3595 620.787C24.2472 621.757 24.5896 622.556 25.1605 623.869L29.3281 633.403C29.8989 634.716 30.2415 635.573 32.4109 634.602L60.9552 622.328L64.5518 630.663C57.8647 633.334 51.8858 637.515 47.0825 642.88C43.7674 646.319 41.5897 650.693 40.8442 655.411C40.0988 660.129 40.8218 664.962 42.9152 669.255C53.762 694.203 83.6194 681.986 90.9267 678.846C98.2341 675.706 127.749 662.347 116.902 637.399C115.16 632.951 112.111 629.136 108.156 626.456C104.202 623.775 99.5285 622.356 94.7516 622.385C88.3093 622.231 81.9021 623.376 75.9124 625.753L72.2586 617.476ZM53.6479 664.802C49.1379 654.469 66.3786 646.362 74.999 642.652C84.9895 638.313 101.716 632.376 106.055 642.309C110.394 652.243 93.2103 660.806 84.5328 664.517C75.8554 668.227 58.1579 674.907 53.6479 664.802Z" fill="#22396E"/>
<path d="M111.017 713.669C110.74 713.803 110.5 714.002 110.318 714.25C110.136 714.497 110.017 714.786 109.972 715.09C109.927 715.394 109.957 715.704 110.06 715.994C110.162 716.283 110.334 716.544 110.56 716.752L112.444 719.321C114.303 721.454 115.528 724.064 115.983 726.857C116.02 728.78 115.541 730.678 114.598 732.354C113.654 734.03 112.28 735.424 110.617 736.39C108.448 738.108 105.73 738.981 102.967 738.845C101.099 738.639 99.2994 738.02 97.6998 737.032C96.1002 736.045 94.7404 734.714 93.7187 733.136C91.2804 730.028 89.7227 726.321 89.2086 722.404C89.2319 721.366 89.0376 720.335 88.6379 719.378C88.1241 718.693 87.5531 718.807 86.9251 718.921L79.8462 719.835C79.2339 719.81 78.6308 719.99 78.1334 720.348C77.8721 720.643 77.672 720.986 77.5445 721.359C77.4171 721.731 77.3651 722.125 77.3914 722.518C77.789 729.241 80.2848 735.67 84.5275 740.9C96.5161 756.999 109.818 755.915 119.58 748.779C123.324 746.605 126.105 743.095 127.366 738.954C128.626 734.812 128.272 730.347 126.373 726.457C129.528 728.471 133.242 729.429 136.978 729.193C140.713 728.957 144.277 727.539 147.154 725.144C157.544 717.494 158.571 706.476 150.522 695.686C146.876 690.552 141.819 686.586 135.964 684.268C135.263 683.921 134.492 683.741 133.709 683.741C132.927 683.741 132.155 683.921 131.454 684.268C131.023 684.566 130.718 685.014 130.598 685.524L128.314 691.918C127.972 692.832 127.972 693.403 128.314 693.745C128.915 694.302 129.672 694.661 130.484 694.773C133.918 695.721 136.971 697.716 139.218 700.482C140.132 701.502 140.811 702.71 141.208 704.021C141.604 705.332 141.708 706.714 141.512 708.069C141.316 709.425 140.825 710.721 140.073 711.866C139.322 713.011 138.329 713.977 137.163 714.697C135.622 715.781 128.543 720.976 121.464 711.443L120.094 709.559C119.944 709.291 119.735 709.061 119.482 708.887C119.23 708.713 118.94 708.599 118.636 708.555C118.333 708.511 118.023 708.537 117.731 708.632C117.44 708.727 117.173 708.888 116.954 709.102L111.017 713.669Z" fill="#22396E"/>
<path d="M222.223 787.776L233.355 796.339C233.757 796.717 234.288 796.927 234.84 796.927C235.391 796.927 235.922 796.717 236.324 796.339L243.974 790.631C244.602 790.117 246.029 789.261 243.974 787.89L206.295 758.947C206.132 758.786 205.934 758.665 205.716 758.594C205.498 758.523 205.267 758.503 205.04 758.536C204.813 758.57 204.597 758.655 204.409 758.785C204.221 758.916 204.065 759.088 203.955 759.289L197.789 767.224C197.626 767.384 197.502 767.579 197.427 767.794C197.351 768.009 197.326 768.239 197.354 768.465C197.381 768.692 197.461 768.909 197.586 769.099C197.711 769.29 197.878 769.449 198.075 769.565L209.892 778.585L172.556 826.596C172.328 826.801 172.153 827.057 172.046 827.344C171.939 827.631 171.904 827.94 171.943 828.243C171.983 828.547 172.095 828.836 172.272 829.087C172.448 829.337 172.683 829.54 172.956 829.679L181.747 836.073C181.963 836.29 182.226 836.454 182.515 836.553C182.804 836.653 183.112 836.684 183.416 836.646C183.719 836.607 184.009 836.499 184.264 836.331C184.519 836.162 184.733 835.937 184.887 835.674L222.223 787.776Z" fill="#22396E"/>
<path d="M254.706 856.202L251.966 858.885C250.689 860.612 248.848 861.837 246.762 862.348C244.677 862.859 242.478 862.623 240.548 861.683C238.369 860.389 236.575 858.536 235.353 856.316C235.035 855.744 234.608 855.24 234.097 854.832C233.905 854.697 233.675 854.624 233.44 854.624C233.205 854.624 232.976 854.697 232.784 854.832L225.762 860.541C224.906 861.226 224.449 861.854 226.675 864.651C229.342 868.044 232.686 870.844 236.495 872.872C240.347 875.139 244.891 875.931 249.282 875.098C253.483 873.728 257.232 871.242 260.129 867.905L303.117 823.034C303.584 822.582 304.004 822.084 304.373 821.549C304.944 820.465 303.688 819.78 302.946 819.266L294.325 813.557C292.784 812.472 291.928 813.557 291.014 814.584L272.518 834.965C269.321 838.447 267.151 840.674 261.614 847.296H261.214C262.641 840.217 263.498 836.449 264.468 831.026L269.263 803.281C269.549 801.226 270.006 800.94 266.923 799.741L257.674 796.088C255.619 795.288 254.592 795.003 254.192 795.802C253.966 796.426 253.831 797.08 253.792 797.743L247.284 851.464C247.284 852.035 247.284 852.491 248.026 852.948L254.706 856.202Z" fill="#22396E"/>
<path d="M337.94 843.829L342.678 845.199C346.731 846.398 353.582 848.51 350.727 858.33C347.873 868.149 341.308 867.806 335.028 865.98L331.717 865.009L337.94 843.829ZM328.292 876.598L334 878.254C349.3 882.649 361.46 875.97 365.57 861.869C366.956 858.545 367.353 854.893 366.715 851.349C366.077 847.805 364.431 844.52 361.974 841.888C357.504 838.047 352.148 835.379 346.389 834.124L328.748 828.986C328.467 828.846 328.156 828.776 327.842 828.783C327.528 828.789 327.22 828.872 326.945 829.023C326.67 829.175 326.436 829.391 326.263 829.653C326.09 829.915 325.983 830.215 325.951 830.528L305.685 899.548C305.399 900.461 305.285 901.717 307.226 902.288L317.559 905.257C319.5 905.827 320.071 904.743 320.356 903.772L328.292 876.598Z" fill="#22396E"/>
<path d="M437.393 849.181C435.395 849.181 435.11 849.866 434.31 851.293L417.926 880.465C415.985 884.005 411.361 892.854 409.248 897.135H408.792C409.99 884.462 410.048 886.802 410.447 881.607L412.845 849.581C412.845 848.553 412.845 847.354 410.79 847.183L400 846.384C399.7 846.31 399.387 846.309 399.086 846.38C398.786 846.451 398.507 846.594 398.273 846.795C398.038 846.996 397.855 847.25 397.738 847.536C397.622 847.821 397.575 848.131 397.602 848.439L392.236 920.142C392.236 921.17 392.236 922.369 394.291 922.54L405.024 923.339C406.736 923.339 407.079 922.825 407.764 921.626L425.69 889.771C428.431 885.108 430.89 880.285 433.054 875.328H433.511C432.997 879.21 432.369 884.519 432.141 887.487L429.458 922.882C429.458 923.853 429.458 925.109 431.57 925.223L442.303 926.022C444.301 926.022 444.643 924.995 444.7 923.967L450.067 852.264C450.067 851.293 450.067 850.037 448.012 849.923L437.393 849.181Z" fill="#22396E"/>
<path d="M490.61 922.506C490.895 924.619 492.037 924.562 493.122 924.39L503.797 922.906C504.939 922.906 506.024 922.449 505.681 920.394L501.228 889.224L522.237 886.255L526.69 917.368C526.69 919.481 528.117 919.424 529.259 919.309L539.877 917.768C541.99 917.483 541.933 916.341 541.819 915.256L531.714 844.067C531.714 842.982 531.257 841.897 529.145 842.183L518.469 843.667C517.384 843.667 516.3 844.124 516.585 846.236L520.639 874.381L499.63 877.349L495.577 849.205C495.577 847.092 494.149 847.149 493.065 847.321L482.389 848.805C481.304 848.805 480.22 849.262 480.505 851.317L490.61 922.506Z" fill="#22396E"/>
<path d="M623.038 892.181L628.747 907.024C628.803 907.333 628.934 907.624 629.128 907.871C629.321 908.118 629.572 908.315 629.858 908.444C630.145 908.573 630.458 908.631 630.772 908.612C631.085 908.594 631.389 908.499 631.658 908.337L640.85 904.969C641.15 904.909 641.432 904.779 641.673 904.589C641.914 904.399 642.106 904.155 642.234 903.876C642.362 903.598 642.422 903.293 642.41 902.987C642.398 902.681 642.313 902.382 642.163 902.114L633.143 877.966C633.075 877.664 632.938 877.381 632.742 877.141C632.546 876.901 632.297 876.71 632.015 876.583C631.732 876.455 631.424 876.395 631.115 876.407C630.805 876.42 630.503 876.504 630.231 876.653L626.007 878.251L604.142 819.85C604.074 819.547 603.936 819.265 603.741 819.025C603.545 818.785 603.296 818.594 603.014 818.466C602.731 818.339 602.423 818.279 602.114 818.291C601.804 818.303 601.502 818.387 601.23 818.537L566.977 831.324C566.676 831.384 566.394 831.514 566.154 831.704C565.913 831.894 565.721 832.138 565.593 832.417C565.464 832.695 565.404 833 565.417 833.306C565.429 833.613 565.514 833.912 565.664 834.179L573.143 854.445C575.706 861.323 577.748 868.384 579.251 875.568C580.74 882.067 580.973 888.791 579.936 895.378L577.938 896.12C577.637 896.18 577.355 896.31 577.114 896.5C576.874 896.69 576.682 896.934 576.554 897.212C576.426 897.491 576.366 897.796 576.378 898.102C576.39 898.408 576.475 898.707 576.625 898.974L585.645 923.066C585.702 923.375 585.832 923.665 586.026 923.913C586.219 924.16 586.47 924.357 586.756 924.486C587.043 924.615 587.356 924.673 587.669 924.654C587.983 924.635 588.288 924.541 588.557 924.379L597.748 921.011C598.05 920.943 598.332 920.805 598.572 920.61C598.812 920.414 599.004 920.165 599.131 919.883C599.258 919.6 599.318 919.292 599.306 918.983C599.294 918.673 599.21 918.371 599.061 918.099L593.352 903.256L623.038 892.181ZM611.62 883.561L593.694 890.183C594.206 885.183 594.091 880.139 593.352 875.169C592.052 867.113 589.928 859.213 587.015 851.591L582.334 838.403L593.181 834.407L611.62 883.561Z" fill="#22396E"/>
<path d="M677.337 840.343L678.421 843.997C679.36 845.976 679.541 848.23 678.931 850.334C678.321 852.437 676.962 854.245 675.11 855.414C672.89 856.629 670.39 857.24 667.86 857.184C667.226 856.997 666.552 856.997 665.919 857.184C665.712 857.315 665.547 857.504 665.445 857.727C665.344 857.95 665.31 858.198 665.348 858.44L666.889 867.346C666.889 868.431 667.346 869.173 670.886 868.659C675.188 868.107 679.328 866.669 683.046 864.434C686.935 862.28 689.915 858.793 691.437 854.615C692.411 850.311 692.153 845.821 690.695 841.656L673.569 781.941C673.112 780.628 673.055 780.286 672.941 780.115C672.256 779.03 671 780.115 670.201 780.115L660.781 784.51C659.011 785.31 659.582 786.566 659.982 787.879L668.202 814.082C669.63 818.592 670.6 821.675 673.398 829.725H672.998C667.575 824.872 664.72 822.189 660.496 818.649L638.916 800.438C637.261 799.068 637.204 798.611 634.635 800.438L626.528 806.49C624.701 807.86 623.959 808.602 624.473 809.344C624.986 810.086 625.101 809.972 625.957 810.657L669.23 843.597C669.744 843.94 670.029 844.282 670.943 843.597L677.337 840.343Z" fill="#22396E"/>
<path d="M762.507 785.249C761.879 785.249 761.365 784.792 760.68 785.249C760.075 786.1 759.666 787.075 759.482 788.103C758.625 791.223 756.926 794.047 754.572 796.267C753.208 797.587 751.548 798.561 749.73 799.107C747.913 799.654 745.99 799.756 744.125 799.407C737.446 798.036 728.597 788.845 725.343 785.249C715.409 774.345 712.041 768.465 712.212 763.669C712.297 762.007 712.721 760.38 713.457 758.888C714.193 757.396 715.227 756.07 716.494 754.992C719.219 752.797 722.645 751.661 726.142 751.795C727.043 751.79 727.928 751.554 728.711 751.109C729.168 750.653 728.711 750.082 728.711 749.454L727.626 742.089C727.521 741.584 727.328 741.101 727.055 740.662C726.598 740.148 725.571 739.863 723.516 739.92C717.466 740.379 711.751 742.874 707.303 746.999C698.511 754.934 690.747 770.919 713.925 796.381C724.6 808.141 742.469 823.098 761.594 806.086C766.319 802.055 769.621 796.61 771.013 790.558C771.12 790.177 771.15 789.779 771.101 789.387C771.052 788.995 770.925 788.617 770.728 788.274C770.304 787.838 769.772 787.523 769.187 787.361L762.507 785.249Z" fill="#22396E"/>
<path d="M761.495 708.242L770.23 697.166C770.607 696.764 770.817 696.234 770.817 695.682C770.817 695.131 770.607 694.6 770.23 694.198L764.521 686.548C764.007 685.863 763.15 684.436 761.723 686.205L732.208 723.656C732.02 723.787 731.866 723.962 731.76 724.166C731.654 724.37 731.598 724.596 731.598 724.826C731.598 725.056 731.654 725.282 731.76 725.486C731.866 725.69 732.02 725.865 732.208 725.996L740.144 732.219C740.309 732.382 740.508 732.507 740.728 732.582C740.947 732.658 741.181 732.683 741.411 732.655C741.642 732.628 741.863 732.549 742.059 732.424C742.255 732.299 742.42 732.131 742.541 731.933L751.79 720.516L800.087 758.194C800.297 758.422 800.558 758.597 800.849 758.703C801.14 758.809 801.453 758.844 801.76 758.805C802.067 758.766 802.361 758.654 802.616 758.478C802.871 758.302 803.081 758.068 803.227 757.795L809.906 749.345C810.134 749.136 810.308 748.874 810.415 748.583C810.521 748.292 810.556 747.98 810.517 747.672C810.478 747.365 810.366 747.071 810.19 746.816C810.014 746.561 809.78 746.352 809.506 746.206L761.495 708.242Z" fill="#22396E"/>
<path d="M789.923 661.665L792.149 657.269C794.147 653.501 797.516 647.221 806.707 651.959C815.898 656.698 814.243 662.978 811.274 668.744L809.676 671.826L789.923 661.665ZM820.465 677.364L823.206 672.112C825.069 669.267 826.29 666.051 826.784 662.686C827.278 659.321 827.033 655.89 826.066 652.629C825.098 649.369 823.432 646.359 821.184 643.808C818.935 641.257 816.157 639.227 813.044 637.859C810.019 635.874 806.492 634.788 802.875 634.728C799.257 634.667 795.696 635.634 792.606 637.516C787.957 641.155 784.271 645.879 781.873 651.274L773.424 667.545C773.236 667.793 773.11 668.083 773.058 668.39C773.005 668.698 773.028 669.013 773.123 669.31C773.218 669.607 773.384 669.876 773.605 670.096C773.826 670.315 774.097 670.478 774.395 670.57L838.791 703.625C839.039 703.813 839.329 703.939 839.637 703.991C839.944 704.043 840.259 704.021 840.556 703.926C840.853 703.831 841.122 703.665 841.342 703.444C841.561 703.223 841.724 702.952 841.817 702.654L846.783 693.177C846.971 692.929 847.097 692.639 847.149 692.332C847.202 692.024 847.179 691.709 847.084 691.412C846.989 691.116 846.824 690.846 846.603 690.627C846.381 690.407 846.11 690.244 845.813 690.152L820.465 677.364Z" fill="#22396E"/>
<path d="M815.432 565.752C814.861 567.693 815.432 568.15 816.916 569.178L842.492 590.871C845.575 593.44 853.396 599.663 857.221 602.289V602.746C844.947 599.092 847.287 599.549 842.207 598.122L811.093 589.444C810.816 589.302 810.508 589.23 810.197 589.236C809.885 589.242 809.58 589.325 809.309 589.478C809.037 589.63 808.808 589.848 808.641 590.111C808.474 590.374 808.375 590.675 808.353 590.986L805.442 601.319C805.442 602.289 805.042 603.488 806.983 604.059L876.688 623.412C877.659 623.412 878.857 623.811 879.428 621.87L882.34 611.594C882.796 609.996 882.34 609.482 881.198 608.626L853.282 584.877C849.208 581.294 844.939 577.94 840.494 574.829V574.373C844.205 575.686 849.343 577.341 852.254 578.141L886.507 587.674C886.785 587.817 887.093 587.888 887.404 587.882C887.715 587.876 888.021 587.793 888.292 587.641C888.564 587.488 888.793 587.27 888.96 587.007C889.127 586.744 889.225 586.444 889.248 586.133L892.159 575.857C892.73 573.916 891.588 573.345 890.618 573.117L820.969 553.707C820.688 553.566 820.378 553.497 820.064 553.503C819.749 553.509 819.442 553.592 819.167 553.744C818.892 553.895 818.657 554.111 818.484 554.373C818.311 554.635 818.204 554.935 818.172 555.248L815.432 565.752Z" fill="#22396E"/>
<path d="M825.429 485.028C825.429 487.026 826.172 487.311 827.599 488.053L857.399 503.639C861.053 505.466 870.015 509.861 874.525 511.859V512.316C861.738 511.46 864.135 511.346 858.826 511.06L826.514 509.462C825.544 509.462 824.287 509.462 824.173 511.574L823.66 522.307C823.66 523.277 823.66 524.533 825.772 524.647L898.103 528.244C899.131 528.244 900.387 528.244 900.501 526.074L901.015 515.399C901.015 513.743 900.444 513.344 899.245 512.716L866.704 495.589C861.941 492.953 857.022 490.608 851.975 488.567V488.168C855.857 488.567 861.224 489.081 864.25 489.195L899.93 490.965C900.958 490.965 902.213 490.965 902.27 488.853L902.842 478.177C902.842 476.179 901.7 475.894 900.672 475.836L828.569 472.354C827.599 472.354 826.343 472.354 826.229 474.466L825.429 485.028Z" fill="#22396E"/>
<path d="M447.374 793.727C627.816 793.727 774.092 647.45 774.092 467.009C774.092 286.567 627.816 140.29 447.374 140.29C266.933 140.29 120.656 286.567 120.656 467.009C120.656 647.45 266.933 793.727 447.374 793.727Z" stroke="#22396E" stroke-width="18.4577"/>
<path d="M284.279 181.548C335.415 211.558 393.533 227.616 452.823 228.117C512.112 228.618 570.494 213.544 622.129 184.403" stroke="#22396E" stroke-width="18.4577"/>
<path d="M692.049 241.503C624.932 298.115 539.601 328.536 451.808 327.151C364.015 325.766 279.686 292.669 214.388 233.968" stroke="#22396E" stroke-width="18.4577"/>
<path d="M738.631 316.861C700.249 354.484 654.727 384.046 604.746 403.805C554.764 423.564 501.334 433.121 447.602 431.914C393.87 430.706 340.923 418.758 291.879 396.773C242.836 374.788 198.688 343.211 162.036 303.902" stroke="#22396E" stroke-width="18.4577"/>
<path d="M290.105 752.439C340.759 721.062 399.336 704.838 458.916 705.683C514.439 704.481 569.13 719.328 616.423 748.443" stroke="#22396E" stroke-width="18.4577"/>
<path d="M692.049 698.27C624.93 641.677 539.614 611.257 451.83 612.621C364.047 613.985 279.716 647.04 214.388 705.692" stroke="#22396E" stroke-width="18.4577"/>
<path d="M738.631 617.163C700.249 579.54 654.727 549.979 604.746 530.22C554.764 510.46 501.334 500.903 447.602 502.111C393.87 503.318 340.923 515.267 291.879 537.251C242.836 559.236 198.688 590.813 162.036 630.122" stroke="#22396E" stroke-width="18.4577"/>
<path d="M210.104 491.903V258.81C241.103 259.266 318.572 260.066 380.171 260.066C441.769 260.066 453.872 331.997 452.217 367.906C456.156 364.937 472.084 363.396 479.505 362.996H570.162V447.259H503.14C490.694 447.259 468.373 464.386 468.373 489.391C468.373 509.258 491.551 520.789 503.14 524.101V457.193H726.585V546.422H669.496V692.74H558.972V604.71C489.439 620.58 437.316 605.509 419.904 596.032C335.47 559.324 345.689 471.636 361.56 432.416H319.543V491.903H210.104Z" fill="#FF4446"/>
<path d="M430.581 380.633H220.437V482.423H305.728L306.927 424.078C316.004 423.678 342.036 422.822 373.72 422.822C405.404 422.822 424.815 394.677 430.581 380.633Z" fill="white"/>
<path d="M451.596 484.937H360.254C363.223 612.073 491.558 613.272 555.611 596.716V538.315C469.35 566.174 450.34 514.338 451.596 484.937Z" fill="white"/>
<path d="M569.018 682.4V579.298H654.308V682.4H569.018Z" fill="white"/>
<path d="M306.94 373.162V326.007H339.081C343.553 327.746 347.378 330.823 350.035 334.818C352.692 338.814 354.05 343.532 353.924 348.329C353.68 353.369 352.198 358.271 349.61 362.602C347.021 366.934 343.405 370.561 339.081 373.162H306.94Z" fill="white"/>
<path d="M208.552 1041.84C208.552 1036.46 208.166 1014.2 189.328 1014.2C170.489 1014.2 170.103 1036.24 170.103 1041.84C170.103 1047.37 170.489 1069.41 189.328 1069.41C208.166 1069.41 208.552 1047.37 208.552 1041.84ZM189.328 1061.12C181.53 1061.12 181.067 1048.14 181.067 1041.84C181.067 1034.54 181.916 1022.49 189.328 1022.49C196.74 1022.49 197.589 1034.47 197.589 1041.84C197.589 1048.14 197.126 1061.12 189.328 1061.12Z" fill="#22396E"/>
<path d="M246.062 1059.04C245.831 1058.66 245.677 1058.28 245.059 1058.28C244.518 1058.28 243.901 1058.74 243.129 1059.2C241.044 1060.43 238.959 1061.12 236.798 1061.12C233.246 1061.12 231.161 1059.43 230.004 1057.89C227.224 1054.13 226.992 1045.38 226.992 1041.99C226.992 1031.86 227.996 1027.33 230.312 1024.95C231.779 1023.41 233.941 1022.49 236.566 1022.49C239.037 1022.49 240.967 1023.64 242.974 1025.26C243.36 1025.56 244.055 1026.1 244.596 1026.1C245.059 1026.1 245.213 1025.71 245.445 1025.33L248.302 1021.03C248.456 1020.72 248.688 1020.42 248.688 1020.03C248.688 1019.57 248.302 1018.96 247.221 1018.04C244.132 1015.35 239.423 1014.2 235.64 1014.2C227.456 1014.2 216.029 1018.8 216.029 1042.53C216.029 1053.44 218.268 1069.41 235.871 1069.41C240.504 1069.41 245.213 1068.03 247.915 1065.8C248.224 1065.57 248.842 1065.03 248.842 1064.5C248.842 1064.19 248.764 1063.88 248.456 1063.35L246.062 1059.04Z" fill="#22396E"/>
<path d="M257.256 1066.58C257.256 1068.04 258.029 1068.12 258.801 1068.12H266.212C266.984 1068.12 267.756 1068.04 267.756 1066.58V1044.92H282.348V1066.58C282.348 1068.04 283.121 1068.12 283.893 1068.12H291.305C292.772 1068.12 292.848 1067.35 292.848 1066.58V1017.05C292.848 1016.28 292.772 1015.51 291.305 1015.51H283.893C283.121 1015.51 282.348 1015.59 282.348 1017.05V1036.63H267.756V1017.05C267.756 1015.59 266.984 1015.51 266.212 1015.51H258.801C258.029 1015.51 257.256 1015.59 257.256 1017.05V1066.58Z" fill="#22396E"/>
<path d="M341.864 1041.84C341.864 1036.46 341.478 1014.2 322.64 1014.2C303.801 1014.2 303.415 1036.24 303.415 1041.84C303.415 1047.37 303.801 1069.41 322.64 1069.41C341.478 1069.41 341.864 1047.37 341.864 1041.84ZM322.64 1061.12C314.842 1061.12 314.379 1048.14 314.379 1041.84C314.379 1034.54 315.228 1022.49 322.64 1022.49C330.052 1022.49 330.901 1034.47 330.901 1041.84C330.901 1048.14 330.438 1061.12 322.64 1061.12Z" fill="#22396E"/>
<path d="M353.968 1015.51C353.274 1015.51 352.424 1015.67 352.424 1017.05V1066.58C352.424 1067.27 352.579 1068.12 353.968 1068.12H366.785C375.2 1068.12 385.932 1066.66 385.932 1053.6C385.932 1044 379.369 1041.31 376.281 1040.55C380.141 1038.94 384.156 1035.64 384.156 1028.95C384.156 1023.73 381.763 1020.27 379.447 1018.51C375.663 1015.67 369.95 1015.51 366.167 1015.51H353.968ZM362.924 1037.24V1023.58H366.167C373.27 1023.58 373.733 1027.95 373.733 1030.03C373.733 1036.48 369.024 1037.24 365.318 1037.24H362.924ZM362.924 1060.05V1045.31H365.858C368.869 1045.31 375.509 1045.31 375.509 1052.76C375.509 1059.44 370.259 1060.05 365.704 1060.05H362.924Z" fill="#22396E"/>
<path d="M408.782 1015.51C407.778 1015.51 407.701 1015.97 407.47 1016.67L392.105 1066.58C391.951 1067.04 391.642 1068.12 393.264 1068.12H401.524C402.529 1068.12 402.605 1067.73 402.914 1066.51L406.08 1054.06H419.359L422.756 1066.51C423.22 1068.04 423.451 1068.12 424.378 1068.12H432.948C433.334 1068.12 434.183 1068.04 434.183 1067.2C434.183 1066.81 434.029 1066.58 433.951 1066.28L418.819 1016.74C418.587 1015.97 418.433 1015.51 417.661 1015.51H408.782ZM417.429 1047.15H407.238L410.635 1033.94C412.025 1028.64 412.256 1025.8 412.334 1023.73H412.565C413.183 1029.03 413.723 1031.64 414.264 1033.94L417.429 1047.15Z" fill="#22396E"/>
<path d="M442.445 1066.58C442.445 1068.04 443.217 1068.12 443.989 1068.12H451.401C452.173 1068.12 452.945 1068.04 452.945 1066.58V1044.92H467.538V1066.58C467.538 1068.04 468.31 1068.12 469.081 1068.12H476.494C477.96 1068.12 478.038 1067.35 478.038 1066.58V1017.05C478.038 1016.28 477.96 1015.51 476.494 1015.51H469.081C468.31 1015.51 467.538 1015.59 467.538 1017.05V1036.63H452.945V1017.05C452.945 1015.59 452.173 1015.51 451.401 1015.51H443.989C443.217 1015.51 442.445 1015.59 442.445 1017.05V1066.58Z" fill="#22396E"/>
<path d="M511.302 1015.51C510.606 1015.51 509.756 1015.67 509.756 1017.05V1066.58C509.756 1067.27 509.913 1068.12 511.302 1068.12H524.117C532.535 1068.12 543.264 1066.66 543.264 1053.6C543.264 1044 536.702 1041.31 533.614 1040.55C537.475 1038.94 541.489 1035.64 541.489 1028.95C541.489 1023.73 539.097 1020.27 536.778 1018.51C532.998 1015.67 527.285 1015.51 523.501 1015.51H511.302ZM520.256 1037.24V1023.58H523.501C530.602 1023.58 531.065 1027.95 531.065 1030.03C531.065 1036.48 526.355 1037.24 522.651 1037.24H520.256ZM520.256 1060.05V1045.31H523.191C526.202 1045.31 532.841 1045.31 532.841 1052.76C532.841 1059.44 527.591 1060.05 523.038 1060.05H520.256Z" fill="#22396E"/>
<path d="M602.223 1062.04C602.223 1061.51 602.376 1060.97 601.14 1060.97H595.04V1018.19C595.04 1017.58 595.121 1016.81 593.499 1016.81H588.092L573.502 1027.26C572.962 1027.64 572.576 1027.94 572.576 1028.48C572.576 1028.94 572.729 1029.25 572.886 1029.48L574.891 1032.94C575.201 1033.47 575.354 1033.94 575.974 1033.94C576.356 1033.94 576.666 1033.7 576.9 1033.55L585.237 1028.41V1060.97H577.439C576.28 1060.97 576.36 1061.66 576.36 1062.04V1067.03C576.36 1068.19 577.053 1068.11 577.439 1068.11H601.14C602.376 1068.11 602.223 1067.57 602.223 1067.03V1062.04Z" fill="#22396E"/>
<path d="M636.542 1048.31L636.308 1049.23C633.684 1059.67 627.198 1061.36 623.494 1061.36C622.334 1061.36 621.332 1061.13 620.325 1060.82C619.48 1060.52 618.86 1060.13 618.397 1060.13C617.934 1060.13 617.624 1060.59 617.548 1060.9L615.925 1066.28C615.772 1066.81 615.539 1067.2 616.545 1067.89C618.244 1069.04 621.175 1069.42 623.184 1069.42C628.744 1069.42 636.308 1067.5 641.405 1059.13C645.109 1053.07 646.345 1044.92 646.345 1038.01C646.345 1034.1 645.882 1027.11 642.641 1022.12C639.94 1017.97 635.769 1015.51 629.823 1015.51C621.561 1015.51 613.224 1020.74 613.224 1034.87C613.224 1047.46 619.943 1052.68 627.355 1052.68C628.897 1052.68 633.221 1052.45 636.385 1048.15L636.542 1048.31ZM629.436 1023.81C631.985 1023.81 636.308 1025.03 636.308 1034.33C636.308 1043.16 632.142 1044.62 629.36 1044.62C626.505 1044.62 622.487 1043 622.487 1034.33C622.487 1025.57 626.735 1023.81 629.436 1023.81Z" fill="#22396E"/>
<path d="M679.434 1048.31L679.205 1049.23C676.58 1059.67 670.094 1061.36 666.386 1061.36C665.231 1061.36 664.224 1061.13 663.222 1060.82C662.372 1060.52 661.756 1060.13 661.293 1060.13C660.826 1060.13 660.52 1060.59 660.444 1060.9L658.821 1066.28C658.664 1066.81 658.435 1067.2 659.437 1067.89C661.136 1069.04 664.071 1069.42 666.08 1069.42C671.636 1069.42 679.205 1067.5 684.298 1059.13C688.006 1053.07 689.242 1044.92 689.242 1038.01C689.242 1034.1 688.779 1027.11 685.534 1022.12C682.832 1017.97 678.661 1015.51 672.719 1015.51C664.458 1015.51 656.12 1020.74 656.12 1034.87C656.12 1047.46 662.835 1052.68 670.247 1052.68C671.793 1052.68 676.117 1052.45 679.281 1048.15L679.434 1048.31ZM672.333 1023.81C674.881 1023.81 679.205 1025.03 679.205 1034.33C679.205 1043.16 675.034 1044.62 672.256 1044.62C669.398 1044.62 665.384 1043 665.384 1034.33C665.384 1025.57 669.631 1023.81 672.333 1023.81Z" fill="#22396E"/>
<path d="M707.211 1043.85C707.211 1045.23 707.907 1045.39 708.753 1045.39H711.148C713.773 1045.39 720.722 1045.69 720.722 1053.14C720.722 1054.76 720.488 1061.36 712.151 1061.36C709.683 1061.36 707.287 1060.9 704.662 1059.75C702.5 1058.83 701.651 1058.21 701.035 1058.21C700.491 1058.21 700.262 1058.67 700.186 1058.98L698.563 1064.66C698.41 1065.12 698.334 1065.97 700.491 1066.89C703.813 1068.27 708.986 1069.42 713.157 1069.42C724.506 1069.42 730.758 1062.28 730.758 1053.14C730.758 1047.61 727.823 1042.39 721.724 1040.55C725.585 1038.86 728.983 1035.48 728.983 1029.26C728.983 1020.81 722.65 1015.51 713.849 1015.51C707.907 1015.51 703.273 1018.28 700.959 1021.5C700.572 1021.96 700.028 1022.88 700.028 1023.35C700.028 1023.73 700.262 1024.04 700.415 1024.11L704.662 1027.88C704.815 1028.03 705.049 1028.26 705.278 1028.26C705.822 1028.26 706.438 1027.42 706.977 1026.8C707.521 1026.27 709.989 1023.58 713.463 1023.58C716.551 1023.58 719.719 1025.57 719.719 1029.87C719.719 1033.79 717.863 1037.09 711.301 1037.09H708.753C707.907 1037.09 707.211 1037.24 707.211 1038.71V1043.85Z" fill="#22396E"/>
</svg>
