<svg width="24" height="24" viewBox="0 0 24 24" fill="none" xmlns="http://www.w3.org/2000/svg">
	<path fill-rule="evenodd" clip-rule="evenodd" d="M16.1457 18.6955C17.1043 19.1148 17.4638 18.2362 17.4638 18.2362L20 5.49506C19.98 4.63634 18.8217 5.15557 18.8217 5.15557L4.62282 10.7273C4.62282 10.7273 3.94383 10.9669 4.00374 11.3863C4.06365 11.8057 4.60285 12.0054 4.60285 12.0054L8.17755 13.2036C8.17755 13.2036 9.25595 16.7384 9.47562 17.4174C9.67532 18.0764 9.85506 18.0964 9.85506 18.0964C10.0548 18.1762 10.2345 18.0364 10.2345 18.0364L12.5511 15.9396L16.1457 18.6955ZM16.7644 7.75179C16.7644 7.75179 17.2637 7.45223 17.2437 7.75179C17.2437 7.75179 17.3236 7.79173 17.064 8.07131C16.8243 8.31096 11.1727 13.3834 10.4138 14.0624C10.3539 14.1024 10.314 14.1623 10.314 14.2422L10.0943 16.1194C10.0544 16.3191 9.79475 16.339 9.73483 16.1593L8.79623 13.0839C8.75629 12.9641 8.79623 12.8243 8.91605 12.7444L16.7644 7.75179Z" fill="currentColor" />
</svg>
